<?xml version="1.0" encoding="utf-8"?>
<!-- Generator: Adobe Illustrator 22.0.0, SVG Export Plug-In . SVG Version: 6.00 Build 0)  -->
<svg version="1.1" id="Layer_2" xmlns="http://www.w3.org/2000/svg" xmlns:xlink="http://www.w3.org/1999/xlink" x="0px" y="0px"
	 viewBox="0 0 1080 1080" style="enable-background:new 0 0 1080 1080;" xml:space="preserve">
<style type="text/css">
	.st0{fill:none;stroke:#683A2A;stroke-width:43;stroke-miterlimit:10;}
	.st1{fill:none;stroke:#330000;stroke-width:43;stroke-miterlimit:10;}
	.st2{fill:#5B4E42;}
	.st3{fill:#423830;}
	.st4{fill:#A8A78F;}
	.st5{fill:#D8D8BF;}
	.st6{fill:#DDDDC5;}
	.st7{fill:#F2F2E2;}
</style>
<circle class="st0" cx="492" cy="593" r="310.5"/>
<path class="st1" d="M487.1,902.7c-0.9,0-1.7,0-2.6,0c-170.3-3.5-307.5-146.6-304-316.9c3.5-170.3,146.6-307.5,316.9-304"/>
<polygon class="st2" points="756,768 506,768 228,768 228,472 503,472 756,472 "/>
<polygon class="st3" points="492,472 497,768 228,768 228,472 "/>
<path class="st4" d="M319.5,460.3c43.9,5.2,84.8-28.7,117.1-37.9c1.9-0.5,3.9-0.9,5.8-1.2c-8.6-1.2-17.5-1.3-26.5,0.6
	c-41.7,8.9-94.5,42.5-151.4,36.9l-7.8,287.9c0,0,66.5,17.1,115.1,14.4c-30.6-3.3-60.1-13-60.1-13L319.5,460.3z"/>
<path class="st5" d="M497.7,753.2l3.3-307c0,0-28.4-29-58.6-24.9c-1.9,0.3-3.9,0.7-5.8,1.2c-32.3,9.1-73.2,43-117.1,37.9l-7.8,287.9
	c0,0,29.5,9.6,60.1,13c23,2.5,46.5,1.5,58.8-9.8c8.1-7.4,16.9-10.5,25.4-11.1C477.9,738.7,497.7,753.2,497.7,753.2z"/>
<path class="st6" d="M679.6,463.3c-44,4.5-84.3-30.1-116.4-39.7c-1.9-0.6-3.9-1-5.8-1.3c8.6-1.1,17.5-1,26.5,1.1
	c41.6,9.5,93.8,44,150.7,39.3l3.2,288c0,0-66.7,16.1-115.3,12.6c30.7-2.9,60.3-12,60.3-12L679.6,463.3z"/>
<path class="st7" d="M496.8,753.3l1.6-307c0,0,28.8-28.6,59-24c1.9,0.3,3.9,0.7,5.8,1.3c32.1,9.6,72.5,44.2,116.4,39.7l3.2,288
	c0,0-29.6,9.1-60.3,12c-23,2.1-46.6,0.7-58.7-10.7c-8-7.5-16.7-10.7-25.2-11.5C516.8,739.1,496.8,753.3,496.8,753.3z"/>
</svg>
